<?xml version="1.0" standalone="no"?>
<!DOCTYPE svg PUBLIC "-//W3C//DTD SVG 20010904//EN"
 "http://www.w3.org/TR/2001/REC-SVG-20010904/DTD/svg10.dtd">
<svg version="1.0" xmlns="http://www.w3.org/2000/svg"
 width="160.000000pt" height="160.000000pt" viewBox="0 0 160.000000 160.000000"
 preserveAspectRatio="xMidYMid meet">
<metadata>
Created by potrace 1.14, written by Peter Selinger 2001-2017
</metadata>
<g transform="translate(0.000000,160.000000) scale(0.100000,-0.100000)"
fill="#000000" stroke="none">
<path d="M700 1490 c-11 -7 -11 -10 -2 -10 7 0 10 -5 6 -12 -4 -7 -3 -8 5 -4
6 4 9 12 6 17 -4 5 -1 9 4 9 6 0 10 -11 9 -24 -2 -17 -7 -22 -18 -18 -13 5
-13 3 -1 -11 8 -10 11 -20 7 -24 -3 -3 -6 -1 -6 5 0 7 -5 12 -11 12 -5 0 -7
-4 -4 -10 3 -5 -3 -10 -14 -10 -10 0 -21 -3 -24 -7 -2 -5 -2 -2 -1 4 4 18 -36
43 -66 42 -14 0 -19 -3 -12 -6 10 -4 10 -8 1 -19 -14 -17 2 -19 20 -1 7 6 12
8 11 2 -6 -28 1 -56 12 -49 7 5 8 3 3 -7 -5 -7 -10 -22 -10 -31 -2 -17 0 -17
16 -2 13 12 19 12 25 3 4 -8 3 -10 -5 -5 -6 4 -14 0 -18 -9 -3 -10 0 -21 7
-25 10 -6 9 -9 -1 -13 -11 -4 -11 -6 -1 -6 7 -1 10 -6 7 -11 -4 -6 -1 -9 6 -8
6 2 13 -8 14 -20 1 -13 7 -27 14 -31 6 -4 13 -21 14 -36 1 -16 10 -37 20 -48
10 -10 16 -25 13 -32 -3 -9 0 -12 10 -8 9 3 14 -2 14 -16 0 -12 9 -30 19 -40
11 -11 17 -21 15 -24 -7 -7 46 -107 56 -107 5 0 7 -8 5 -19 -2 -10 7 -29 19
-42 13 -14 22 -32 20 -42 -1 -9 1 -15 6 -12 4 3 16 2 26 -2 15 -6 14 -8 -7
-16 -43 -18 -105 -15 -93 4 7 12 -17 11 -36 -1 -10 -6 -11 -10 -2 -10 6 0 11
-3 11 -7 -4 -24 3 -35 17 -29 8 3 13 2 10 -3 -3 -5 8 -19 24 -32 16 -13 30
-29 30 -36 0 -6 9 -15 20 -18 11 -3 20 -13 20 -21 0 -8 4 -12 10 -9 5 3 10 -1
10 -9 0 -17 1 -18 44 -20 24 -1 30 -7 33 -29 4 -28 -22 -50 -36 -31 -3 5 -20
14 -37 20 -32 11 -34 8 -25 -38 0 -3 15 -9 31 -13 17 -4 28 -10 25 -15 -3 -4
9 -13 25 -19 17 -5 30 -13 30 -16 0 -3 -5 -3 -12 1 -7 4 -8 3 -4 -5 4 -6 11
-9 15 -7 4 3 17 -4 29 -14 12 -11 26 -20 32 -20 5 0 10 -7 10 -16 0 -8 4 -13
8 -10 5 3 15 -4 22 -14 11 -16 17 -17 29 -7 10 8 13 8 8 1 -4 -7 0 -15 9 -18
8 -3 12 -11 9 -16 -4 -6 -3 -9 2 -8 18 5 53 -14 53 -29 0 -10 6 -13 16 -9 8 3
13 2 10 -3 -3 -5 8 -14 25 -21 20 -9 28 -18 24 -28 -4 -11 -2 -12 7 -6 7 5 35
9 62 8 l49 -1 -26 23 c-15 13 -27 28 -27 35 0 9 -3 9 -14 0 -12 -10 -17 -8
-25 7 -6 11 -7 22 -4 26 3 3 1 6 -6 6 -7 0 -10 4 -7 9 8 12 56 20 56 9 0 -5 6
-6 12 -1 14 8 93 7 107 -2 5 -3 8 3 6 12 -1 10 -8 17 -14 16 -6 -2 -11 2 -11
8 0 5 -5 7 -10 4 -6 -3 -10 0 -10 8 0 8 -14 17 -30 21 -28 5 -30 8 -20 26 9
16 15 19 25 10 10 -8 15 -8 21 1 5 8 3 9 -6 4 -9 -6 -11 -4 -6 4 5 7 14 10 22
7 8 -3 14 -2 14 3 0 4 18 7 39 7 22 -1 38 0 36 2 -2 3 2 11 10 19 20 20 19 39
-1 23 -12 -11 -15 -11 -12 0 2 10 -9 13 -44 12 -33 -1 -46 3 -44 13 3 20 27
46 37 39 5 -3 9 0 9 6 0 6 4 9 9 6 12 -8 42 4 36 14 -3 4 2 11 11 14 10 4 13
2 8 -7 -6 -9 -5 -9 8 0 8 7 18 10 21 6 4 -3 7 3 7 14 0 17 -6 20 -40 17 -26
-2 -40 1 -40 9 0 7 -4 6 -10 -3 -8 -12 -10 -10 -7 10 3 30 52 84 66 75 6 -3
11 2 11 12 0 15 2 16 10 3 8 -11 10 -8 8 15 -2 25 -7 31 -26 33 -12 1 -21 -2
-18 -7 4 -5 -5 -4 -19 2 -30 14 -31 23 -5 39 11 7 20 21 20 31 0 10 5 15 10
12 6 -3 10 -1 10 4 0 6 6 10 13 8 7 -1 12 9 12 27 0 35 -28 43 -55 16 -23 -23
-30 -16 -30 31 0 25 5 39 16 43 9 4 14 13 10 21 -3 8 -1 15 4 15 5 0 7 8 3 18
-5 15 -4 15 8 -1 14 -17 15 -16 17 10 2 22 -2 29 -18 30 -11 1 -19 -1 -16 -5
2 -4 -2 -12 -9 -19 -11 -10 -15 -10 -18 0 -4 9 -6 9 -6 0 -1 -7 -8 -13 -16
-13 -8 0 -15 -4 -15 -10 0 -5 -5 -10 -12 -10 -6 0 -8 3 -5 6 3 4 2 15 -4 25
-6 13 -6 19 0 19 6 0 8 7 5 15 -4 10 -2 13 8 10 12 -5 15 3 14 34 -1 22 2 37
6 35 5 -3 8 4 8 15 0 12 5 21 12 21 6 0 9 3 5 6 -3 3 -12 2 -19 -2 -13 -8 -18
-10 -38 -13 -5 0 -6 -8 -3 -18 4 -11 3 -14 -5 -9 -7 4 -12 2 -12 -4 0 -6 -4
-9 -9 -6 -5 4 -12 0 -14 -6 -4 -9 -6 -7 -6 3 -1 9 -11 24 -23 33 -13 9 -17 14
-10 11 6 -3 12 -1 12 5 0 6 5 8 12 4 7 -5 8 -3 3 7 -5 7 -8 30 -6 51 2 29 -1
38 -13 38 -8 0 -18 -5 -22 -12 -5 -7 -3 -8 5 -3 10 5 9 2 0 -13 -7 -12 -16
-19 -20 -16 -4 2 -12 -4 -18 -13 -10 -17 -10 -17 -11 0 0 9 -7 17 -15 17 -8 0
-12 6 -9 14 3 8 0 25 -7 38 -11 21 -11 22 5 9 14 -12 16 -12 10 2 -3 8 -12 18
-19 21 -8 3 -11 13 -8 24 6 26 -11 36 -28 15 -10 -12 -10 -14 -1 -9 16 9 15 5
-3 -30 -8 -16 -15 -23 -15 -16 0 10 -5 10 -21 2 -15 -9 -24 -8 -35 1 -19 15
-18 29 2 29 13 0 14 3 5 14 -6 8 -10 19 -9 26 2 7 -7 14 -19 16 -13 2 -23 -1
-23 -6 0 -6 5 -9 11 -8 6 2 13 -3 14 -10 2 -7 1 -8 -2 -2 -3 6 -11 6 -25 -1
-16 -9 -19 -8 -12 3 6 10 5 11 -7 2 -31 -24 -46 -23 -43 2 2 20 0 23 -11 14
-12 -10 -13 -8 -10 10 3 18 2 20 -10 10 -9 -7 -15 -8 -20 0 -8 13 -35 13 -35
-1 0 -5 4 -8 9 -4 5 3 13 0 17 -7 4 -7 4 -10 0 -6 -5 4 -18 3 -30 -2 -18 -6
-26 -4 -37 12 -27 40 -52 59 -60 46 -4 -7 -2 -19 4 -27 10 -12 9 -13 -2 -6
-11 6 -13 4 -7 -11 4 -10 4 -15 0 -12 -4 4 -16 2 -28 -4 -11 -6 -18 -7 -14 -3
4 4 0 14 -9 23 -12 12 -19 13 -34 4 -13 -9 -20 -9 -25 0 -4 7 -3 8 4 4 7 -4
12 -2 12 3 0 6 -7 11 -17 11 -9 0 -13 3 -10 7 7 6 -11 33 -22 33 -3 0 -13 -5
-21 -10z m195 -30 c3 -6 -1 -7 -9 -4 -18 7 -21 14 -7 14 6 0 13 -4 16 -10z
m-250 -40 c3 -5 2 -10 -4 -10 -5 0 -13 5 -16 10 -3 6 -2 10 4 10 5 0 13 -4 16
-10z"/>
<path d="M997 1470 c14 -30 30 -42 20 -16 -3 7 -2 17 1 22 4 5 6 8 3 7 -2 -1
-12 2 -22 7 -16 9 -16 8 -2 -20z"/>
<path d="M442 1469 c-14 -5 -20 -13 -16 -20 5 -8 3 -9 -6 -4 -7 4 -16 2 -20
-6 -8 -11 -26 -18 -57 -21 -6 -1 -9 -7 -6 -14 2 -6 -1 -15 -8 -20 -8 -5 -10
-3 -5 7 4 8 -6 -1 -23 -19 -17 -18 -31 -30 -31 -27 0 3 -13 -7 -30 -21 -16
-15 -28 -30 -26 -33 5 -9 -32 -40 -39 -33 -4 4 -5 2 -3 -4 2 -7 -9 -22 -23
-36 -14 -13 -24 -28 -22 -34 5 -14 -32 -55 -42 -46 -4 4 -2 -3 4 -15 8 -16 8
-23 1 -23 -6 0 -8 -5 -5 -10 4 -6 1 -9 -5 -8 -7 2 -14 -8 -16 -21 -2 -13 -11
-39 -20 -57 -9 -18 -14 -39 -12 -46 3 -7 -2 -19 -11 -26 -13 -11 -13 -12 -1
-7 10 4 9 2 -3 -8 -15 -12 -17 -32 -17 -142 0 -105 2 -125 13 -116 11 9 14 0
16 -47 2 -40 8 -62 21 -74 11 -11 16 -25 13 -38 -4 -14 2 -28 17 -42 14 -13
18 -23 11 -27 -6 -4 -1 -17 14 -35 14 -16 22 -32 20 -37 -3 -4 3 -6 13 -4 14
2 18 -3 16 -27 -1 -16 0 -27 3 -24 3 3 35 -25 71 -62 36 -37 69 -66 73 -65 5
2 9 -4 9 -13 0 -9 7 -14 18 -12 10 2 30 -11 48 -30 18 -18 36 -32 40 -31 5 1
12 0 17 -1 4 -1 13 -3 20 -4 6 -1 11 -7 10 -14 -2 -7 10 -10 31 -8 24 1 37 -3
46 -17 8 -14 20 -18 41 -15 16 3 29 1 29 -4 0 -4 5 -8 11 -8 5 0 7 4 4 10 -3
6 1 7 10 4 9 -4 14 -12 11 -19 -4 -11 31 -14 164 -15 151 -1 171 1 187 17 14
14 27 17 55 12 21 -3 35 -3 33 1 -8 13 30 35 57 34 15 0 29 5 32 12 3 8 17 14
31 14 15 0 25 6 25 15 0 8 11 17 25 21 14 3 23 10 20 14 -3 4 3 14 12 21 12
10 14 10 9 2 -4 -7 -3 -13 3 -13 20 0 21 19 1 30 -11 6 -17 16 -14 22 4 7 3 8
-5 4 -6 -4 -9 -13 -5 -19 3 -7 -2 -3 -12 8 -16 20 -16 20 -12 -1 3 -13 0 -21
-8 -21 -7 0 -11 5 -8 11 3 6 -4 0 -15 -13 -15 -16 -28 -22 -45 -19 -17 4 -23
1 -19 -9 3 -7 -2 -13 -11 -13 -9 0 -16 -6 -16 -12 0 -10 -2 -10 -8 -1 -5 8
-11 8 -24 -1 -10 -7 -15 -16 -11 -19 3 -4 -14 -7 -40 -7 -33 0 -49 -5 -56 -17
-5 -10 -13 -15 -17 -11 -4 5 -13 3 -20 -3 -8 -7 -14 -7 -19 1 -4 7 -12 7 -26
0 -14 -8 -19 -7 -19 2 0 9 -3 9 -10 -2 -5 -8 -10 -10 -10 -5 0 6 -40 10 -100
10 -60 0 -100 -4 -100 -10 -1 -5 -9 0 -20 13 -10 13 -21 23 -24 22 -48 -3 -86
2 -83 12 1 7 -2 12 -8 13 -5 0 -15 4 -22 8 -6 4 -14 1 -16 -5 -4 -8 -6 -7 -6
4 -1 14 -38 36 -49 29 -2 -1 -11 6 -20 16 -9 10 -24 18 -32 18 -21 -2 -41 15
-33 28 3 6 1 7 -6 3 -6 -4 -14 -1 -17 8 -3 8 -15 18 -26 22 -16 5 -18 8 -7 15
11 7 11 9 -2 9 -9 0 -20 7 -23 16 -4 9 -13 14 -22 10 -8 -3 -12 -2 -9 4 3 5
-5 19 -19 31 -15 13 -22 27 -19 37 5 12 2 14 -11 9 -14 -6 -16 -3 -11 13 4 12
2 20 -5 20 -6 0 -8 5 -5 10 4 6 1 9 -7 8 -8 -2 -13 7 -13 24 1 14 -3 24 -7 22
-4 -3 -8 0 -8 6 0 6 -4 9 -8 6 -7 -4 -11 10 -14 52 -1 7 -7 11 -13 8 -8 -3
-11 12 -11 49 1 29 -2 51 -5 49 -4 -2 -10 3 -13 12 -4 10 -2 13 7 8 6 -4 5 1
-4 12 -9 10 -15 27 -14 37 2 9 -1 17 -6 17 -6 0 -6 8 1 19 6 12 6 22 1 25 -5
3 -5 21 -1 41 4 19 4 35 -1 35 -4 0 -6 7 -3 15 4 8 10 12 15 9 8 -5 13 9 10
29 0 4 2 7 7 7 4 0 6 19 4 41 -3 28 0 44 9 50 11 7 11 9 1 9 -8 0 -6 8 7 22
11 11 18 25 15 29 -2 4 6 17 18 28 12 12 17 21 11 21 -6 0 -9 9 -6 20 3 12 8
18 11 15 8 -8 34 34 27 45 -3 6 1 10 10 10 11 0 15 5 12 14 -4 10 0 12 15 8
15 -3 19 -1 14 7 -8 13 18 44 29 33 4 -4 5 -2 3 3 -5 16 45 66 60 60 11 -4 13
0 9 15 -4 17 -3 19 9 9 10 -8 14 -8 14 0 0 6 6 11 13 11 7 0 19 9 27 20 16 22
35 28 25 8 -4 -7 0 -5 8 4 8 10 17 15 20 11 4 -3 7 1 7 10 0 11 5 14 15 11 11
-5 13 -2 9 10 -3 9 -1 16 5 16 6 0 11 8 10 18 0 11 -2 12 -6 4 -3 -8 -9 -10
-16 -4 -7 6 -21 6 -35 1z"/>
<path d="M1121 1463 c-1 -17 16 -25 25 -12 4 7 3 9 -4 5 -5 -3 -13 0 -15 6 -4
9 -6 10 -6 1z"/>
<path d="M841 1444 c0 -11 3 -14 6 -6 3 7 2 16 -1 19 -3 4 -6 -2 -5 -13z"/>
<path d="M1167 1349 c7 -7 15 -10 18 -7 3 3 -2 9 -12 12 -14 6 -15 5 -6 -5z"/>
<path d="M448 1344 c-6 -5 -30 -11 -52 -13 -5 -1 -7 -4 -3 -7 3 -3 -13 -25
-37 -48 -51 -50 -88 -101 -79 -110 3 -3 1 -6 -6 -6 -7 0 -9 -5 -5 -12 4 -7 3
-8 -5 -4 -6 4 -14 -1 -19 -13 -4 -11 -11 -21 -17 -21 -5 -1 -9 -6 -8 -11 2 -5
-2 -9 -8 -9 -5 0 -7 -5 -4 -10 3 -6 -1 -17 -9 -26 -9 -9 -14 -26 -12 -40 3
-13 -2 -31 -10 -39 -9 -8 -12 -20 -8 -26 4 -8 3 -9 -4 -5 -8 4 -10 -5 -8 -28
1 -20 -2 -38 -8 -40 -7 -3 -6 -5 1 -5 7 -1 11 -7 9 -13 -13 -40 -15 -78 -5
-72 8 5 9 2 2 -10 -5 -9 -6 -45 -2 -81 3 -35 4 -76 2 -90 -4 -17 -1 -25 9 -25
14 0 18 -11 19 -52 0 -10 7 -18 15 -18 8 0 13 -3 13 -7 -4 -24 2 -53 10 -49 8
5 22 -26 18 -40 -1 -3 6 -10 16 -15 9 -6 17 -17 17 -25 0 -8 3 -13 7 -11 10 5
93 -79 86 -87 -6 -6 13 -10 30 -7 5 1 6 -3 2 -9 -3 -5 -1 -10 5 -10 6 0 8 -5
4 -11 -4 -8 -1 -8 13 -1 15 8 22 7 31 -9 7 -10 19 -19 28 -19 8 0 13 -4 10 -9
-3 -5 12 -13 34 -19 28 -7 38 -7 33 1 -4 6 0 8 10 4 10 -3 17 -2 17 3 0 5 8 7
18 4 14 -5 14 -4 2 4 -8 6 -19 8 -25 6 -5 -3 -2 1 8 9 9 8 17 20 17 28 0 12
-2 12 -9 1 -7 -11 -9 -10 -14 3 -4 9 -3 14 2 11 5 -3 15 2 22 11 10 12 10 14
1 9 -15 -9 -15 -1 -1 26 8 16 8 19 -1 13 -9 -6 -9 -3 -1 12 7 14 7 23 0 30 -8
8 -8 13 0 17 5 4 8 13 5 20 -3 7 1 18 9 24 10 9 19 7 38 -6 13 -9 33 -18 44
-19 11 -2 25 -10 31 -18 6 -8 14 -12 17 -8 4 3 7 1 7 -6 0 -7 5 -9 10 -6 6 3
10 -1 10 -9 0 -9 5 -16 11 -16 5 0 7 6 4 12 -4 7 1 4 9 -6 9 -11 16 -15 16 -8
0 6 7 9 15 6 8 -4 12 -11 9 -18 -3 -6 1 -3 9 7 14 17 15 17 34 0 10 -10 12
-13 3 -8 -13 9 -13 8 -2 -6 10 -14 17 -15 37 -5 14 6 23 16 21 23 -3 6 0 14 7
17 8 3 8 5 -1 5 -17 1 -43 27 -35 35 4 3 -1 6 -11 6 -9 0 -19 7 -22 15 -4 8
-10 12 -15 9 -5 -3 -9 1 -9 9 0 15 -27 32 -45 28 -5 -2 -7 0 -3 4 8 9 -16 35
-32 35 -6 0 -8 5 -5 10 3 6 0 10 -8 10 -10 0 -14 7 -10 23 3 15 2 18 -4 9 -7
-9 -12 -6 -21 13 -6 14 -16 25 -22 25 -5 0 -10 7 -10 16 0 8 -4 12 -10 9 -5
-3 -11 -1 -11 4 -3 21 -4 26 -13 39 -4 7 -5 16 -2 19 3 4 6 0 6 -8 1 -10 5 -8
15 5 8 11 15 14 15 8 0 -7 7 -12 15 -12 7 0 18 -6 22 -13 10 -15 45 -17 55 -2
5 6 8 5 8 -3 0 -10 3 -10 14 0 16 15 10 32 -10 24 -8 -3 -11 0 -7 10 3 9 -2
14 -16 14 -12 0 -20 3 -20 8 4 24 -2 34 -18 28 -10 -4 -14 -4 -11 -1 4 4 -7
20 -23 36 -16 15 -29 33 -29 38 0 5 -9 12 -20 16 -11 3 -19 12 -17 18 1 7 -4
11 -10 9 -7 -1 -13 4 -14 10 0 7 -2 21 -4 30 -2 9 3 19 11 22 8 3 14 -1 14 -8
0 -15 27 -29 40 -21 5 3 11 1 15 -4 3 -6 13 -7 22 -4 12 5 14 3 8 -8 -5 -8 -4
-11 0 -6 16 14 13 38 -6 50 -10 6 -19 17 -19 23 0 7 -7 15 -16 18 -9 4 -14 13
-10 21 3 8 1 15 -5 15 -6 0 -7 5 -4 10 3 6 -1 10 -10 10 -9 0 -14 4 -10 9 3 5
1 12 -5 16 -6 4 -7 12 -3 18 4 8 1 7 -9 -1 -14 -11 -16 -11 -12 6 3 10 -2 24
-10 31 -9 8 -16 22 -16 32 0 10 -10 27 -21 38 -13 12 -19 26 -15 36 4 12 0 19
-15 22 -12 3 -18 11 -15 19 3 7 -1 20 -9 28 -8 8 -15 19 -15 25 0 6 -6 11 -12
11 -10 0 -9 3 1 9 10 7 9 11 -8 23 -11 8 -18 18 -14 21 3 4 4 7 1 7 -2 0 -7
-3 -10 -6z"/>
<path d="M1475 550 c-3 -5 -1 -10 4 -10 6 0 11 5 11 10 0 6 -2 10 -4 10 -3 0
-8 -4 -11 -10z"/>
<path d="M679 329 c-11 -5 -15 -22 -14 -48 1 -23 -1 -39 -3 -36 -11 11 -31
-25 -26 -50 3 -17 1 -24 -6 -20 -6 3 -7 0 -4 -9 3 -9 10 -16 16 -16 5 0 7 -4
4 -9 -6 -10 39 -32 48 -23 9 9 76 9 76 0 0 -4 6 -5 13 -3 26 10 87 12 87 3 0
-5 4 -7 9 -3 15 8 71 13 71 5 0 -3 10 -6 23 -4 12 1 28 3 36 3 11 1 11 4 1 16
-11 13 -10 14 4 9 9 -3 16 -2 16 4 0 12 33 10 42 -3 5 -6 8 -5 8 3 0 7 4 10
10 7 5 -3 19 3 31 13 12 12 29 18 40 15 11 -3 19 -2 18 3 -3 20 2 35 10 29 5
-3 12 -1 15 4 4 5 -7 15 -24 23 -16 7 -30 16 -30 19 0 4 -9 9 -20 12 -11 3
-20 1 -20 -4 0 -5 -10 -5 -24 1 -13 5 -27 6 -30 3 -3 -4 -6 -1 -6 7 0 10 -4
10 -17 -1 -11 -9 -14 -10 -9 -2 5 9 2 11 -8 7 -9 -3 -14 -10 -11 -15 3 -4 -3
-13 -14 -18 -25 -14 -64 -14 -56 -1 3 6 1 10 -5 10 -6 0 -9 4 -6 8 2 4 -11 6
-31 4 -23 -3 -38 0 -44 9 -4 8 -17 15 -28 15 -11 1 -18 -2 -16 -7 7 -10 -32
-22 -45 -14 -5 3 -10 13 -10 21 0 8 -3 13 -7 13 -20 -3 -34 2 -29 10 8 13 -17
20 -35 10z"/>
</g>
</svg>
